<svg width="237" height="38" viewBox="0 0 237 38" fill="none" xmlns="http://www.w3.org/2000/svg">
<path d="M191 0H127V37H191V0Z" fill="#ED1C24"/>
<path d="M6.49705 15.061C6.49705 13.4285 7.78839 12.1146 9.68504 12.1146H12.9134C15.6978 12.1146 16.8681 9.0487 16.8681 9.0487C14.003 8.92925 12.9134 9.0487 9.76575 9.0487C7.78839 9.0487 6.33563 9.96449 5.00394 11.0395C3.75295 12.035 3.02657 13.548 3.06693 15.1008C3.06693 19.1223 7.02165 20.1177 10.0886 20.9141C12.2274 21.3919 13.9222 22.228 13.9222 23.7411C13.9222 25.5328 12.5906 26.1699 10.4114 26.1699H0V29.3552H10.4114C12.5502 29.3552 13.9222 28.9172 15.2943 27.882C16.626 26.9264 17.3927 25.3735 17.3524 23.7411C17.3927 19.6798 13.3573 18.5649 10.3307 17.9278C8.19193 17.3306 6.49705 16.5342 6.49705 15.061ZM22.8809 6.46062C24.1319 6.46062 25.1407 5.4652 25.1407 4.2707C25.1407 3.03639 24.1722 2.00115 22.9213 2.00115C21.6299 1.96134 20.5807 2.95675 20.5807 4.19107V4.23089C20.5807 5.4652 21.5896 6.46062 22.8809 6.46062C22.8406 6.46062 22.8406 6.46062 22.8809 6.46062ZM24.5354 28.957V9.92467H21.1457V28.957H24.5354ZM45.7618 13.1896C44.1073 10.6812 41.6457 9.40705 38.4577 9.40705C35.7943 9.36724 33.252 10.4025 31.436 12.3137C29.5394 14.1452 28.5305 16.6935 28.5709 19.3214C28.5305 21.9493 29.5394 24.4976 31.436 26.369C33.252 28.2802 35.7943 29.3154 38.4577 29.2756C41.6053 29.2756 44.0266 28.0014 45.7618 25.4532V28.1607C45.7618 31.784 43.502 33.8147 39.4665 33.8147H30.4675V37H39.5069C42.2106 37 44.2687 36.2833 46.2057 34.7304C48.1427 33.1776 49.1112 30.9877 49.1112 28.2005V9.92467H45.7618V13.1896ZM45.7618 19.3214C45.8022 21.153 45.0758 22.8651 43.7845 24.1392C41.0404 26.7273 36.6821 26.7273 33.938 24.1392C32.6467 22.8651 31.9203 21.1132 31.9606 19.3214C31.9203 17.5297 32.6467 15.7777 33.938 14.5434C36.6821 11.9553 41.0404 11.9553 43.7845 14.5434C45.1161 15.7777 45.8022 17.5297 45.7618 19.3214ZM70.2569 13.1896C68.6024 10.6812 66.1407 9.40705 62.9124 9.40705C60.2894 9.36724 57.747 10.4423 55.9715 12.3535C54.0748 14.2249 53.0659 16.7731 53.1063 19.4409C53.0659 22.1086 54.0748 24.6568 55.9715 26.568C57.747 28.4394 60.2894 29.5145 62.9124 29.4746C66.1407 29.4746 68.562 28.2005 70.2569 25.6921V28.957H73.6467V9.92467H70.2569V13.1896ZM63.3563 26.2495C61.5404 26.2893 59.7648 25.5726 58.4734 24.2985C57.1821 23.0244 56.4557 21.2326 56.4961 19.4409C56.4557 17.6093 57.1821 15.8972 58.4734 14.623C61.1772 11.9951 65.5758 11.9951 68.2795 14.623C69.5709 15.8972 70.2972 17.6491 70.2569 19.4409C70.2972 21.2724 69.5709 23.0244 68.2795 24.2985C66.9882 25.5726 65.2126 26.2893 63.3563 26.2495ZM82.1211 9.92467H78.7313V28.957H82.1211V18.8436C82.1211 16.7333 82.686 15.2601 83.8967 14.3045C85.1073 13.3489 86.6408 12.9109 88.1742 13.0304V9.56632C85.2687 9.56632 83.251 10.7608 82.1211 13.11V9.92467ZM109.037 20.9539C109.118 20.4761 109.158 19.9585 109.158 19.4807C109.239 16.8528 108.271 14.3045 106.455 12.3933C104.719 10.4423 102.177 9.32742 99.5138 9.40705C96.5276 9.40705 94.1063 10.3627 92.1693 12.2739C90.2726 14.1851 89.3445 16.5741 89.3445 19.4409C89.2638 22.1086 90.313 24.7365 92.2096 26.6477C94.1467 28.5191 96.6486 29.4746 99.7156 29.4746C103.509 29.4746 106.334 28.0413 108.23 25.1744L105.365 23.5818C104.195 25.4532 102.339 26.369 99.7963 26.369C96.124 26.369 93.4203 24.3781 92.7746 20.9937L109.037 20.9539ZM99.5138 12.5526C102.621 12.5526 105.163 14.4638 105.769 18.0871H92.815C93.3799 14.7027 95.8819 12.5526 99.5138 12.5526ZM123 9.92467H117.835V4.58924L114.445 6.38099V9.92467H110.611V13.11H114.445V23.4225C114.445 28.1209 117.068 29.7136 122.96 28.957V25.9708C119.53 26.1301 117.794 26.369 117.794 23.4225V13.11H122.96C123 13.11 123 9.92467 123 9.92467Z" fill="#060509"/>
<path d="M141.778 9.0336C138.926 9.0336 136.807 10.1568 135.422 12.4032V9.5328H132V29.4176H135.422V18.8928C135.422 14.4416 137.704 12.32 141.085 12.32C144.1 12.32 145.933 14.192 145.933 17.3952V29.4176H149.356V17.2288C149.396 12.1952 146.381 9.0336 141.778 9.0336ZM172.904 21.0976C172.985 20.5984 173.026 20.0576 173.026 19.5584C173.107 16.8128 172.13 14.1504 170.296 12.1536C168.544 10.1152 165.978 8.9504 163.289 9.0336C160.274 9.0336 157.789 10.032 155.874 12.0288C153.959 14.0256 153.022 16.5216 153.022 19.5168C152.941 22.304 154 25.0496 155.915 27.0464C157.87 29.0016 160.396 30 163.493 30C167.322 30 170.174 28.5024 172.089 25.5072L169.196 23.8432C168.015 25.7984 166.141 26.7552 163.574 26.7552C159.867 26.7552 157.137 24.6752 156.485 21.1392L172.904 21.0976ZM163.289 12.32C166.426 12.32 168.993 14.3168 169.604 18.1024H156.526C157.096 14.5664 159.663 12.32 163.289 12.32ZM187 9.5744H181.785V4L178.363 5.872V9.5744H174.493V12.9024H178.363V23.6768C178.363 26.8384 179.789 29.3344 183.7 29.3344V28.9184C182.07 27.2544 181.744 24.8416 181.744 23.6768V12.9024H187V9.5744Z" fill="white"/>
<path d="M206.745 9.24803C203.513 9.24803 201.09 10.5511 199.393 13.1164V2H196V29.2412H199.393V25.8615C201.049 28.4268 203.513 29.7298 206.745 29.7298C209.37 29.7706 211.915 28.7119 213.693 26.7573C215.591 24.8028 216.601 22.1968 216.561 19.4686C216.601 16.7811 215.591 14.1751 213.693 12.2205C211.915 10.3067 209.411 9.24803 206.745 9.24803ZM206.341 26.4723C204.483 26.513 202.705 25.8208 201.413 24.477C200.12 23.174 199.393 21.3417 199.433 19.5093C199.393 15.7224 202.382 12.587 206.139 12.5463C206.22 12.5463 206.26 12.5463 206.341 12.5463C208.199 12.5056 209.936 13.2385 211.229 14.5823C212.521 15.8853 213.248 17.6769 213.208 19.5093C213.248 21.3824 212.521 23.174 211.229 24.477C209.936 25.7801 208.159 26.513 206.341 26.4723ZM227.79 25.0064L221.246 9.57379H217.611L226.053 29.1598L225.69 29.8927C224.559 32.7431 222.822 34.0461 220.438 33.8425V36.9779C224.316 37.2629 227.386 34.779 229.042 30.4221L237 9.77738H233.365L227.79 25.0064Z" fill="#060509"/>
<path d="M186.478 29C188.043 29 189 28.1335 189 27.0005C189 25.8341 188 25.001 186.522 25.001C185.174 24.9676 184.043 25.8008 184 26.8672C184 26.9338 184 26.9672 184 27.0338C184.043 28.1335 185.043 29 186.478 29Z" fill="white"/>
</svg>
